<?xml version="1.0" encoding="utf-8"?>
<!-- Generator: Adobe Illustrator 16.0.3, SVG Export Plug-In . SVG Version: 6.00 Build 0)  -->
<!DOCTYPE svg PUBLIC "-//W3C//DTD SVG 1.1//EN" "http://www.w3.org/Graphics/SVG/1.1/DTD/svg11.dtd">
<svg version="1.1" id="Layer_1" xmlns="http://www.w3.org/2000/svg" xmlns:xlink="http://www.w3.org/1999/xlink" x="0px" y="0px"
	 width="539.114px" height="47.92px" viewBox="0 0 539.114 47.92" enable-background="new 0 0 539.114 47.92" xml:space="preserve">
<g>
	<path fill="none" stroke="#FFFFFF" stroke-miterlimit="10" d="M56.169,7.575c2.193-0.162,2.663-3.807,2.663-3.807
		C58.832,1.688,60.52,0,62.601,0c2.082,0,3.77,1.688,3.77,3.769s-2.556,5.705-3.11,6.538c-0.553,0.83-1.599,5.155-1.599,5.155
		l8.569,3.598c0,0,2.865,0.801,2.4,2.558c-0.464,1.763-3.129,1.346-3.129,1.346l-8.772-3.799l-1.675,6.691l9.312,17.815
		c0,0,0.915,3.749-1.783,4.209c-2.7,0.462-3.256-3.295-3.256-3.295l-7.803-14.731l-6.392,14.443c0,0-2.426,3.854-4.483,2.562
		c-2.055-1.293-0.302-4.188-0.302-4.188L51.367,25.7l2.207-10.467c0,0,0.536-2.336-1.045-2.933c-1.583-0.595-2.53,2.017-2.53,2.017
		L47.025,25.7c0,0-0.983,1.73-2.55,1.018c-1.569-0.714-0.824-2.757-0.824-2.757l2.463-10.219"/>
	<circle fill="none" stroke="#FFFFFF" stroke-width="0.5" stroke-miterlimit="10" cx="46.297" cy="12.406" r="1.746"/>
	<circle fill="none" stroke="#FFFFFF" stroke-width="0.5" stroke-miterlimit="10" cx="54.761" cy="7.691" r="1.746"/>
</g>
<g>
	<path fill="none" stroke="#FFFFFF" stroke-miterlimit="10" d="M124.384,5.498c5.372,0,5.361,5.362,5.361,5.362v21.934
		c0,6.441,5.224,11.665,11.668,11.665c6.442,0,11.666-5.224,11.666-11.665c0-6.443-5.224-11.668-11.666-11.668
		c-14.002,0-14.002,23.333-28.002,23.333c-6.066,0-11.666-5.224-11.666-11.665c0-6.443,5.224-11.668,11.666-11.668
		c0,0,4.201-0.442,4.201-7.922h-7.935"/>
	<circle fill="none" stroke="#FFFFFF" stroke-width="0.5" stroke-miterlimit="10" cx="122.738" cy="5.498" r="2.037"/>
	<circle fill="none" stroke="#FFFFFF" stroke-width="0.5" stroke-miterlimit="10" cx="108.225" cy="13.198" r="2.037"/>
</g>
<g>
	<path fill="none" stroke="#FFFFFF" stroke-miterlimit="10" d="M183.423,43.136h6.239c0,0,0.335-8.714,8.655-8.714
		c8.32,0,8.363,8.3,8.363,8.3h5.528c2.33,0,2.578-3.943,2.578-3.943s0-22.678,0-26.007c0-3.328,3.163-3.162,3.163-3.162
		s5.658,0,9.316,0c3.662,0,3.828,3.827,3.828,3.827v25.127c0,4.162,3.328,4.158,3.328,4.158c2.664,0,3.508,0,4.161,0
		c3.432,0,3.432-2.662,3.432-2.662s0-18.302,0-26.517c0-8.214-8.757-8.757-8.757-8.757h-49.833"/>
	<circle fill="none" stroke="#FFFFFF" stroke-width="0.5" stroke-miterlimit="10" cx="181.427" cy="4.786" r="2.037"/>
	<circle fill="none" stroke="#FFFFFF" stroke-width="0.5" stroke-miterlimit="10" cx="181.427" cy="43.136" r="2.037"/>
</g>
<text transform="matrix(1 0 0 1 265.8159 39.8018)" fill="#FFFFFF" font-family="'HelveticaNeue-Bold'" font-size="39">Transitize</text>
<text transform="matrix(1 0 0 1 445.3491 39.8018)" fill="#FFFFFF" font-family="'HelveticaNeue-Bold'" font-size="39">d</text>
<text transform="matrix(1 0 0 1 471.1421 39.8018)" fill="#FFFFFF" font-family="'HelveticaNeue-Bold'" font-size="28">.com</text>
</svg>
